<svg version="1.0" xmlns="http://www.w3.org/2000/svg" width="1254px" height="1254px" viewBox="0 0 1254 1254" preserveAspectRatio="xMidYMid meet">
 <g fill="#000000">
  <path d="M316.68 886.37 c-1.10 -1.47 -1.96 -4.16 -1.96 -5.88 0 -5.39 8.57 -49.47 9.80 -50.70 1.84 -1.84 15.92 -2.45 19.96 -0.86 3.06 1.22 3.31 1.71 3.31 8.33 0 8.57 -7.59 47.27 -9.80 49.96 -1.10 1.35 -3.92 1.84 -10.53 1.84 -7.84 0 -9.18 -0.37 -10.78 -2.69z" data-index="0"></path>
  <path d="M391.39 887.11 c-2.94 -2.82 -2.45 -9.67 2.33 -34.17 3.06 -15.80 4.90 -22.53 6.37 -23.51 2.45 -1.84 18.49 -2.08 21.19 -0.37 0.98 0.61 2.33 2.94 3.18 5.14 l1.22 3.92 2.45 -3.92 c2.69 -4.78 9.18 -6.86 17.88 -6.12 7.84 0.86 9.55 2.45 9.55 9.55 0 7.10 -8.08 47.51 -9.92 49.72 -1.84 2.20 -18.37 2.33 -20.45 0.24 -0.86 -0.86 -1.47 -2.69 -1.47 -4.29 0 -2.45 -0.61 -2.82 -4.90 -2.82 -4.04 0 -4.90 0.37 -4.90 2.33 0 4.53 -3.31 6.25 -12.25 6.25 -6 0 -8.94 -0.49 -10.29 -1.96z m21.31 -40.53 c0 -0.61 -0.49 -1.71 -1.10 -2.57 -0.73 -1.22 -1.22 -1.10 -1.71 0.86 -0.37 1.71 0 2.57 1.10 2.57 0.98 0 1.71 -0.37 1.71 -0.86z" data-index="1"></path>
  <path d="M499.15 887.11 c-2.94 -2.94 -2.45 -10.90 2.33 -34.78 3.06 -15.19 4.90 -21.92 6.37 -22.90 2.69 -2.08 25.84 -1.96 33.31 0 7.23 1.96 10.29 6.12 10.90 15.19 1.22 17.76 -7.47 28.53 -23.27 28.53 -4.41 0 -4.53 0 -5.88 6.74 -0.86 4.29 -2.20 7.23 -3.67 7.96 -3.80 1.96 -17.88 1.47 -20.08 -0.73z" data-index="2"></path>
  <path d="M606.79 888.21 c-3.92 -1.10 -7.96 -4.16 -9.92 -7.84 -3.67 -7.23 -0.98 -31.72 4.65 -41.76 4.65 -8.08 9.43 -10.16 23.63 -10.16 13.84 0 18.86 1.84 22.04 7.96 4.16 7.96 0.61 35.51 -5.63 44.33 -4.16 5.76 -11.02 8.33 -22.53 8.20 -5.39 -0.12 -10.90 -0.49 -12.25 -0.73z" data-index="3"></path>
  <path d="M693.99 886.86 c-2.94 -3.31 -2.57 -9.06 2.20 -33.92 3.06 -15.43 4.90 -22.53 6.37 -23.51 2.45 -1.84 25.35 -2.08 32.82 -0.37 2.94 0.61 6.25 2.57 8.45 5.02 3.31 3.80 3.43 4.29 2.94 14.57 -0.37 8.45 -1.10 11.51 -3.43 15.31 -2.57 4.16 -2.94 6.12 -2.57 13.23 0.24 5.27 -0.24 8.94 -1.10 10.04 -1.84 2.20 -17.14 2.57 -21.06 0.49 -1.71 -0.98 -2.82 -0.98 -3.80 0 -0.73 0.73 -5.27 1.35 -10.04 1.35 -6.98 0 -9.18 -0.49 -10.78 -2.20z" data-index="4"></path>
  <path d="M800.40 886.37 c-1.10 -1.47 -1.96 -3.92 -1.96 -5.39 0 -2.94 3.31 -23.15 4.41 -26.45 0.49 -1.71 0 -2.20 -2.45 -2.20 -5.51 0 -7.23 -3.06 -6.61 -12.61 0.61 -11.88 0.61 -11.88 25.23 -11.88 11.39 0 21.06 0.49 22.41 1.22 1.96 1.10 2.33 2.69 2.33 9.55 0 10.53 -1.84 13.47 -8.94 13.96 l-5.14 0.37 -3.31 16.29 c-1.71 8.94 -3.92 17.14 -4.65 18.12 -1.10 1.22 -4.16 1.71 -10.53 1.71 -7.84 0 -9.18 -0.37 -10.78 -2.69z" data-index="5"></path>
  <path d="M891.15 887.60 c-6.74 -1.84 -8.69 -5.51 -7.84 -14.57 0.37 -4.65 1.47 -8.33 2.82 -9.80 1.84 -2.08 2.20 -4.29 1.96 -11.27 -0.37 -10.41 2.57 -16.90 9.55 -20.94 5.88 -3.55 27.92 -3.80 34.04 -0.37 3.80 2.08 3.92 2.33 3.92 10.78 0 4.78 -0.61 9.80 -1.35 11.14 -0.73 1.47 -1.47 7.47 -1.59 13.35 -0.12 11.63 -1.47 14.70 -8.57 19.96 -2.82 2.20 -5.39 2.57 -15.80 2.82 -6.86 0.12 -14.57 -0.37 -17.14 -1.10z" data-index="6"></path>
  <path d="M210.63 870.57 c-15.80 -0.61 -30 -1.35 -31.47 -1.71 -2.45 -0.61 -2.82 -1.47 -2.82 -7.35 0 -5.88 0.37 -6.98 2.69 -7.96 3.06 -1.10 69.31 -4.90 86.70 -4.90 6.49 0 11.14 0.61 12 1.47 1.96 1.96 1.96 18.37 0 20.33 -1.71 1.71 -21.31 1.71 -67.11 0.12z" data-index="7"></path>
  <path d="M976.99 866.90 c-1.84 -0.98 -2.20 -2.94 -2.20 -10.29 0 -11.76 0.98 -12.86 12.61 -12.86 26.57 0 88.42 2.69 89.89 3.92 2.08 1.71 2.08 11.39 -0.12 13.59 -1.22 1.10 -6.12 1.96 -15.06 2.45 -7.23 0.49 -25.84 1.71 -41.39 2.69 -32.94 2.08 -40.90 2.20 -43.72 0.49z" data-index="8" style="opacity: 1;"></path>
  <path d="M518.50 778.85 c-1.35 -0.49 -16.78 -9.67 -34.29 -20.33 -86.95 -52.78 -119.77 -72.62 -130.91 -79.11 l-12.25 -7.10 -10.53 0 c-6.98 0 -11.02 0.49 -11.76 1.59 -0.73 0.73 -6.61 15.55 -13.23 32.70 -21.68 56.21 -26.33 67.84 -28.41 70.05 -1.84 2.08 -5.27 2.20 -50.58 2.20 -46.78 0 -48.74 -0.12 -50.82 -2.45 -3.92 -4.29 -1.84 -12 16.16 -58.17 9.55 -24.25 22.29 -57.31 28.41 -73.48 15.80 -41.27 16.16 -42 17.76 -43.35 0.98 -0.86 43.72 -1.35 120.26 -1.71 128.22 -0.49 123.56 -0.24 141.81 -7.10 14.45 -5.39 28.41 -17.88 30.86 -27.55 2.08 -8.33 -4.29 -18 -15.06 -22.78 -14.08 -6.25 -11.39 -6.12 -166.06 -6.49 -165.20 -0.37 -149.77 0.86 -148.79 -11.63 0.61 -6.61 0.73 -6.86 11.14 -16.53 5.76 -5.39 18.61 -17.51 28.53 -26.94 l18 -17.14 137.28 0 c127.48 0 138.26 0.12 151.36 2.20 47.64 7.72 78.38 24.61 91.11 49.96 5.76 11.51 7.23 19.72 6.61 36.62 -0.86 22.04 -7.59 38.94 -23.02 57.31 -13.35 15.92 -35.51 31.35 -60.62 42.13 -15.19 6.49 -39.55 13.84 -52.90 15.92 -4.90 0.86 -8.94 1.84 -8.94 2.45 0 0.49 0.49 0.98 0.98 0.98 0.98 0 25.23 15.19 81.07 51.07 15.80 10.16 36.25 23.15 45.31 29.02 9.06 5.76 17.27 11.76 18 13.35 2.08 3.67 1.96 9.55 -0.37 12.86 l-1.84 2.69 -60.86 -0.12 c-33.43 0 -61.97 -0.49 -63.43 -1.10z m-253.13 -14.94 c0.73 -0.86 2.45 -4.65 3.80 -8.33 8.45 -22.66 34.78 -89.89 36.37 -93.07 l1.96 -3.67 22.41 0 22.53 0 49.47 29.76 c27.19 16.41 66.74 40.41 87.93 53.27 l38.58 23.51 43.84 0 c24 0 43.72 -0.24 43.72 -0.49 0 -0.49 -40.29 -26.45 -93.07 -59.88 -16.53 -10.53 -35.64 -22.66 -42.49 -27.06 l-12.61 -7.96 0 -5.51 c0 -6.49 -0.61 -6.12 17.14 -8.57 64.29 -8.94 116.83 -37.96 136.30 -75.31 10.53 -19.84 12 -36.62 4.90 -51.68 -10.90 -23.02 -34.41 -37.96 -72.74 -46.17 -22.29 -4.90 -31.47 -5.14 -159.93 -5.14 l-124.67 0.12 -22.66 21.92 -22.66 21.92 136.54 0.12 c83.76 0 139.85 0.49 145.12 1.22 19.35 2.82 33.31 10.41 38.45 21.06 3.92 8.20 3.67 26.08 -0.49 35.02 -6.25 13.47 -22.90 25.23 -44.09 31.11 -9.80 2.82 -10.53 2.82 -129.69 3.43 l-119.77 0.61 -1.71 4.29 c-0.86 2.33 -9.80 25.84 -19.84 52.05 -15.92 41.51 -22.17 57.56 -34.41 88.54 l-2.57 6.37 36.62 0 c27.80 0 36.86 -0.37 37.72 -1.47z" data-index="9" style="opacity: 1;"></path>
  <path d="M894.33 773.95 c-3.18 -1.35 -4.65 -5.76 -3.67 -11.51 0.37 -2.33 5.39 -17.51 11.27 -33.92 5.88 -16.41 13.84 -38.94 17.76 -50.09 3.92 -11.14 7.72 -21.80 8.45 -23.76 l1.35 -3.43 -6.25 4.41 c-8.69 6.37 -80.70 59.76 -114.38 84.87 l-28.17 21.06 -6.49 0.12 c-5.88 0 -6.98 -0.49 -10.41 -3.92 -5.51 -6 -73.97 -79.97 -90.25 -97.72 -28.41 -30.86 -37.96 -41.88 -38.70 -44.82 -1.35 -5.27 0.37 -11.02 5.14 -17.14 10.16 -13.23 16.78 -32.70 18.25 -53.76 0.49 -6.74 1.47 -12.98 2.08 -13.72 0.73 -0.98 4.04 -1.59 7.59 -1.59 l6.25 0 25.10 25.35 c13.72 14.08 40.66 41.27 59.76 60.62 l34.66 35.27 30.25 -22.53 c62.21 -46.29 77.52 -57.68 108.50 -80.70 17.51 -12.86 33.92 -24.98 36.62 -26.82 l4.90 -3.43 48.74 0 48.74 0 1.84 2.69 c2.45 3.55 2.45 10.29 0 17.02 -1.96 5.39 -8.33 23.88 -54.86 157.61 -13.84 39.92 -25.23 73.11 -25.23 73.84 0 0.61 -1.35 2.57 -3.06 4.16 l-2.94 3.06 -45.07 -0.12 c-24.74 0 -46.29 -0.49 -47.76 -1.10z m86.33 -20.45 c2.82 -8.45 42 -121.11 62.46 -179.77 l14.57 -41.64 -33.19 -0.61 c-18.25 -0.37 -35.39 -0.24 -38.09 0.12 -4.04 0.49 -13.72 7.23 -53.27 36.62 -26.57 19.72 -58.54 43.47 -71.03 52.78 -12.49 9.18 -31.96 23.63 -43.35 32.21 -18.98 14.08 -21.19 15.43 -25.96 15.43 l-5.14 0 -57.56 -58.17 -57.43 -58.29 -0.86 7.84 c-1.47 15.31 -9.18 36.13 -17.27 46.78 l-2.69 3.67 18.37 20.21 c33.55 36.86 100.91 109.60 102.99 111.32 1.84 1.47 2.45 1.47 5.39 -0.73 1.84 -1.35 24 -17.76 49.23 -36.49 111.44 -82.66 113.15 -83.89 119.89 -83.89 l5.02 0 0 6.74 c0 5.14 -1.84 11.76 -8.08 29.02 -14.21 39.31 -36 101.64 -36 102.74 0 0.61 14.94 1.10 34.78 1.10 l34.78 0 2.45 -6.98z" data-index="10" style="opacity: 1;"></path>
  <path d="M984.22 484.70 c-2.33 -2.94 -8.57 -11.63 -13.72 -19.35 -29.88 -43.96 -37.72 -52.29 -57.68 -61.35 -18.49 -8.45 -67.84 -20.33 -120.87 -29.15 -43.84 -7.35 -40.17 -7.23 -44.33 -1.71 -17.76 23.88 -48.49 48.86 -85.48 69.56 -24 13.47 -31.47 13.72 -31.47 1.22 0 -5.27 0.24 -5.51 12.61 -16.29 13.23 -11.63 29.76 -28.29 39.07 -39.43 5.63 -6.86 20.82 -28.41 20.33 -28.78 -0.24 -0.12 -6.61 0.98 -14.33 2.57 -21.55 4.41 -35.51 5.76 -60.13 5.76 -23.39 -0.12 -44.58 -2.20 -63.31 -6.25 l-10.04 -2.33 2.45 4.53 c9.67 17.14 35.51 46.54 55.72 63.31 7.10 5.88 13.10 11.88 13.47 13.23 0.37 1.47 0.49 4.78 0.24 7.47 l-0.37 4.78 -6.12 0.37 c-5.51 0.24 -7.59 -0.49 -22.04 -8.33 -27.43 -15.06 -49.47 -30.86 -68.70 -49.35 -9.80 -9.31 -19.96 -20.82 -23.27 -26.33 -0.86 -1.35 -63.31 9.55 -94.42 16.41 -59.64 13.10 -83.15 23.02 -109.24 46.05 -5.14 4.53 -5.88 4.78 -12.25 4.41 l-6.86 -0.37 -0.37 -5.88 c-0.49 -7.10 0.12 -8.20 13.23 -22.78 16.29 -18.12 31.72 -28.41 59.39 -39.80 20.33 -8.20 64.29 -22.78 102.13 -33.92 18.61 -5.39 35.64 -11.02 37.96 -12.49 2.33 -1.35 8.20 -5.63 12.98 -9.55 14.57 -11.51 16.29 -11.88 29.51 -5.51 26.82 12.86 71.03 21.80 97.85 19.72 28.41 -2.08 56.58 -8.45 77.76 -17.63 8.20 -3.55 13.35 -5.02 17.51 -5.02 5.39 0 6.74 0.73 17.02 8.69 6.25 4.78 12.74 9.43 14.57 10.41 1.84 0.86 18.25 6.12 36.37 11.39 70.90 21.06 110.46 35.39 131.77 48 10.04 6.12 24.86 19.84 31.96 29.88 6.49 9.06 19.47 30.74 30.49 50.45 7.59 13.84 8.20 15.43 7.84 21.43 l-0.37 6.49 -6.25 0.37 c-6.12 0.37 -6.49 0.24 -10.65 -4.90z m-425.06 -89.64 c-16.16 -20.70 -27.68 -41.76 -27.68 -50.58 l0 -5.27 5.51 0 c3.06 0 12.12 1.84 19.96 4.16 47.51 13.72 95.52 13.59 144.75 -0.49 7.10 -1.96 15.55 -3.67 18.86 -3.67 l5.88 0 -0.49 6.61 c-0.49 5.39 -2.08 9.31 -8.20 19.96 -4.16 7.35 -11.27 18.25 -15.80 24.12 -4.53 6 -9.06 12.12 -10.04 13.47 -3.18 4.41 12.98 -8.94 24.37 -20.21 13.23 -12.86 24.37 -27.55 30.13 -39.68 2.33 -5.02 4.29 -9.55 4.29 -10.04 0 -0.49 -2.69 -2.69 -5.88 -4.90 -3.18 -2.08 -7.72 -5.27 -10.29 -7.10 l-4.41 -3.31 -11.02 4.41 c-13.35 5.39 -34.04 10.78 -52.29 13.84 -20.57 3.31 -60.99 2.94 -81.68 -0.61 -18.37 -3.31 -33.06 -7.35 -47.64 -13.23 l-10.65 -4.29 -10.41 7.59 -10.41 7.72 2.94 6.49 c7.84 17.76 24.37 37.84 46.29 56.21 6.86 5.63 12.49 10.29 12.61 10.29 0.12 0 -3.80 -5.14 -8.69 -11.51z m-180.26 -17.14 c35.02 -8.57 103.36 -21.55 113.52 -21.55 1.84 0 3.67 -0.49 4.04 -1.10 0.73 -0.98 -3.67 -13.10 -5.39 -15.19 -2.45 -2.82 -129.07 37.96 -133.48 42.86 -0.37 0.49 0.24 0.49 1.35 0 1.10 -0.37 10.04 -2.57 19.96 -5.02z m521.07 4.90 c-1.10 -1.10 -21.43 -8.82 -41.51 -15.68 -22.17 -7.47 -88.78 -27.92 -91.23 -27.92 -0.86 0 -2.82 3.55 -4.53 7.96 l-3.18 7.96 2.57 0.49 c1.47 0.37 12.37 1.96 24.12 3.80 28.17 4.29 70.78 12.74 93.68 18.74 19.23 5.02 20.94 5.51 20.08 4.65z" data-index="11" style="opacity: 1;"></path>
 </g>
 <g fill="#ffffff">
  
  <path d="M325.13 875.35 c6.49 -34.29 7.35 -37.11 10.16 -37.47 3.55 -0.49 3.43 0.49 -0.86 23.02 -3.31 17.51 -3.43 17.76 -6.74 18.12 -3.18 0.37 -3.31 0.24 -2.57 -3.67z" data-index="13"></path>
  <path d="M399.22 877.68 c0 -0.86 1.59 -9.80 3.67 -19.84 1.96 -10.16 3.67 -18.86 3.67 -19.35 0 -0.61 1.84 -0.86 4.04 -0.61 3.55 0.37 4.04 0.86 6 7.10 1.22 3.67 2.69 9.06 3.43 12 0.73 2.82 1.71 5.14 2.20 5.14 0.49 0 3.67 -4.53 6.98 -10.04 8.57 -14.08 10.78 -16.04 15.06 -13.35 1.35 0.86 1.22 3.31 -0.98 14.33 -1.35 7.35 -3.18 16.29 -3.80 19.84 -1.10 5.63 -1.59 6.37 -4.29 6.37 -1.59 0 -2.94 -0.12 -2.94 -0.24 0 -0.24 0.86 -5.02 1.84 -10.78 3.06 -17.14 2.69 -17.63 -4.53 -6.98 -6.49 9.31 -9.06 11.63 -11.02 9.67 -0.61 -0.61 -2.08 -4.78 -3.43 -9.43 -1.35 -4.65 -2.94 -8.94 -3.43 -9.43 -0.98 -0.98 -3.55 8.82 -5.88 22.66 -0.61 3.80 -1.22 4.53 -3.67 4.53 -1.59 0 -2.94 -0.73 -2.94 -1.59z" data-index="14"></path>
  <path d="M506.99 877.80 c0 -0.86 1.71 -10.29 3.80 -20.82 l3.92 -19.35 8.82 0 c14.33 0 18.98 2.69 18.98 11.02 0 9.67 -6.74 14.70 -19.47 14.70 -7.84 0 -8.69 0.86 -8.69 8.82 0 1.71 -0.37 4.04 -0.73 5.14 -0.86 2.33 -6.61 2.69 -6.61 0.49z m27.68 -23.63 c4.16 -6.37 -0.37 -11.63 -10.04 -11.63 -4.78 0 -6.61 2.94 -6.61 10.53 l0 4.16 7.35 0 c6.37 0 7.47 -0.37 9.31 -3.06z" data-index="15"></path>
  <path d="M524.13 850.49 c0 -1.35 0.86 -1.84 2.82 -1.59 1.47 0.24 2.69 0.98 2.69 1.59 0 0.73 -1.22 1.35 -2.69 1.59 -1.96 0.24 -2.82 -0.24 -2.82 -1.59z" data-index="16"></path>
  <path d="M608.02 876.21 c-3.55 -3.43 -4.04 -9.55 -1.71 -20.45 1.84 -8.82 4.16 -12.86 8.82 -15.68 6.98 -4.29 21.19 -2.45 23.39 3.06 1.10 3.06 0.86 12.86 -0.49 18.37 -3.80 14.45 -7.47 17.76 -19.59 17.76 -6.25 0 -7.96 -0.49 -10.41 -3.06z m19.59 -4.29 c1.71 -1.35 5.51 -15.92 5.51 -20.94 0 -4.53 -3.43 -7.23 -9.18 -7.23 -6.49 0 -8.94 2.57 -11.14 11.88 -2.45 10.41 -2.20 14.57 1.10 16.90 2.94 2.20 10.78 1.84 13.72 -0.61z" data-index="17"></path>
  <path d="M617.20 864.33 c0 -5.27 2.33 -13.59 4.16 -14.70 0.73 -0.49 2.33 -0.98 3.67 -0.98 2.08 0 2.20 0.73 1.59 7.23 -0.73 9.06 -2.45 12.37 -6.37 12.37 -2.69 0 -3.06 -0.61 -3.06 -3.92z" data-index="18"></path>
  <path d="M701.70 878.29 c0 -3.55 7.47 -38.82 8.45 -39.80 0.61 -0.61 5.76 -0.98 11.51 -0.73 13.10 0.61 15.55 2.33 15.55 11.14 0 5.02 -0.61 6.61 -3.43 9.43 -1.84 1.84 -4.04 3.67 -5.02 3.92 -1.59 0.61 -0.73 4.53 3.31 15.55 0.37 0.98 -0.73 1.47 -3.31 1.47 -3.55 0 -3.80 -0.37 -6 -7.59 l-2.20 -7.72 -4.78 0 c-5.27 0 -4.65 -0.98 -7.47 12.61 -0.37 1.96 -1.35 2.69 -3.55 2.69 -1.71 0 -3.06 -0.49 -3.06 -0.98z m27.68 -24 c4.16 -6.37 -0.24 -11.76 -9.55 -11.76 -5.39 0 -5.51 0.12 -6.61 8.33 l-0.86 6.37 7.47 0 c6.61 0 7.72 -0.37 9.55 -2.94z" data-index="19"></path>
  <path d="M719.46 851.10 c-0.37 -0.73 0.12 -1.59 1.22 -1.96 2.33 -0.98 3.67 0 2.45 1.84 -0.98 1.71 -2.69 1.71 -3.67 0.12z" data-index="20"></path>
  <path d="M808.24 878.41 c0 -0.61 1.35 -8.08 3.06 -16.90 1.71 -8.69 3.06 -16.29 3.06 -16.78 0 -0.49 -2.45 -0.98 -5.51 -0.98 -5.02 0 -5.51 -0.24 -5.51 -3.06 l0 -3.06 15.43 0 c15.19 0 15.31 0 14.94 2.82 -0.37 2.33 -1.35 2.82 -6.49 3.31 l-6.12 0.61 -3.31 16.53 c-1.71 9.06 -3.31 16.90 -3.31 17.51 -0.12 0.49 -1.47 0.86 -3.18 0.86 -1.71 0 -3.06 -0.37 -3.06 -0.86z" data-index="21"></path>
  <path d="M895.56 878.04 c-2.94 -1.22 -3.55 -3.18 -1.71 -6 0.86 -1.35 1.96 -1.35 6.61 0.49 8.69 3.31 16.78 0.73 16.78 -5.39 0 -2.20 -3.67 -4.90 -8.45 -6.25 -11.27 -3.06 -14.57 -10.90 -7.72 -18.49 2.94 -3.31 4.65 -4.04 10.16 -4.53 11.63 -0.86 17.88 2.08 14.70 7.10 -0.98 1.47 -1.59 1.47 -4.41 0 -4.16 -2.20 -11.88 -2.33 -14.57 -0.12 -2.33 1.96 -2.57 6.61 -0.37 8.45 0.73 0.61 3.18 1.59 5.14 1.96 2.08 0.49 5.51 1.84 7.72 3.18 3.43 2.08 3.92 3.06 3.92 7.47 0 6.25 -1.59 9.18 -6.12 11.51 -3.92 2.08 -17.27 2.33 -21.68 0.61z" data-index="22"></path>
  <path d="M222.27 860.90 c-4.53 -0.86 -4.41 -0.86 2.57 -1.10 4.04 0 15.80 -0.49 25.96 -0.98 16.78 -0.61 18.61 -0.61 18.61 1.22 0 1.84 -2.20 2.08 -21.06 1.96 -11.63 -0.12 -23.39 -0.61 -26.08 -1.10z" data-index="23"></path>
  <path d="M984.59 856 c0 -2.33 0.86 -2.45 13.84 -2.45 7.72 0 20.82 0.37 29.15 0.86 l15.19 0.86 -22.04 1.47 c-33.43 2.33 -36.13 2.20 -36.13 -0.73z" data-index="24"></path>
  <path d="M184.92 768.44 c0 -0.24 3.31 -8.94 7.47 -19.23 5.63 -14.33 39.68 -102.62 51.80 -134.46 l1.71 -4.29 119.77 -0.61 c119.15 -0.61 119.89 -0.61 129.69 -3.43 29.27 -8.08 47.15 -25.35 47.15 -45.43 0 -18.86 -13.96 -30.49 -41.02 -34.41 -5.27 -0.73 -62.21 -1.22 -148.55 -1.22 -113.40 0 -139.73 -0.24 -138.99 -1.59 0.49 -0.86 12.25 -12.37 26.08 -25.59 l25.10 -24.12 128.34 -0.12 c82.91 0 132.50 0.49 140.22 1.35 32.57 3.55 59.52 12.74 76.78 26.08 9.18 7.23 14.57 13.84 19.47 24 3.18 6.98 3.80 9.55 4.16 20.45 0.61 14.45 -1.84 24.49 -9.18 38.45 -19.47 37.35 -72.01 66.37 -136.30 75.31 -15.55 2.20 -17.14 2.57 -17.14 4.90 0 0.98 5.63 5.39 12.61 9.80 6.86 4.41 25.96 16.53 42.49 27.06 36.86 23.39 80.21 51.07 94.78 60.62 l10.78 7.10 -53.64 0 -53.76 0 -38.58 -23.51 c-21.19 -12.86 -60.74 -36.86 -87.93 -53.27 l-49.47 -29.76 -18.86 0 -18.74 0 -1.96 3.67 c-1.59 3.18 -27.92 70.42 -36.37 93.07 -1.35 3.67 -3.06 7.47 -3.80 8.33 -0.86 1.10 -10.90 1.47 -42.62 1.47 -22.90 0 -41.51 -0.24 -41.51 -0.61z" data-index="25" style="opacity: 1;"></path>
  <path d="M902.66 760.85 c0.73 -1.96 7.84 -21.92 15.80 -44.45 7.96 -22.53 18.12 -51.07 22.53 -63.43 7.96 -21.80 9.43 -28.41 6.74 -28.41 -1.47 0 -17.88 11.14 -36.62 24.98 -23.88 17.51 -106.42 78.74 -120.01 88.91 -7.72 5.76 -14.70 10.90 -15.43 11.39 -1.96 1.10 -29.02 -27.55 -104.95 -110.95 l-25.35 -28.04 4.16 -5.63 c10.53 -14.45 17.51 -33.80 18.74 -51.92 0.37 -6 1.10 -10.78 1.47 -10.78 0.37 0 27.92 27.55 61.11 61.23 33.31 33.68 61.11 61.23 61.97 61.23 0.86 0 10.90 -6.98 22.29 -15.43 11.39 -8.57 30.86 -23.02 43.35 -32.21 12.49 -9.31 44.21 -32.82 70.42 -52.29 26.33 -19.47 48.62 -36 49.60 -36.62 1.47 -0.98 84.38 -1.22 85.23 -0.24 0.12 0.12 -7.10 21.43 -16.16 47.39 -24.98 71.52 -60.50 173.65 -63.19 181.61 l-2.45 6.98 -40.29 0 -40.29 0 1.35 -3.31z" data-index="26" style="opacity: 1;"></path>
  <path d="M977.24 457.15 c-24.12 -36.62 -36.62 -50.45 -52.66 -59.03 -22.90 -12.12 -96.87 -29.39 -165.69 -38.70 -4.90 -0.61 -5.88 -1.22 -5.39 -2.82 1.10 -3.31 9.06 -22.41 9.67 -22.90 0.73 -0.73 54.25 15.19 85.48 25.35 68.95 22.53 90.62 34.90 108.62 61.60 7.23 10.78 31.59 52.05 30.74 52.05 -0.24 0 -5.02 -6.98 -10.78 -15.55z" data-index="27" style="opacity: 1;"></path>
  <path d="M591.49 428.12 c-45.31 -28.17 -74.82 -57.43 -87.07 -86.33 -1.96 -4.41 -3.55 -8.69 -3.55 -9.43 0 -1.10 16.90 -14.57 24 -19.10 0.86 -0.49 5.76 0.98 10.90 3.31 13.35 6.12 33.92 12.12 52.66 15.43 20.94 3.67 54.50 3.92 74.70 0.61 23.39 -3.80 41.76 -8.94 59.15 -16.53 l8.82 -3.92 7.10 5.39 c3.80 2.94 9.55 7.10 12.74 9.18 l5.76 3.92 -1.71 5.02 c-10.29 29.15 -35.51 57.07 -76.54 84.38 -14.70 9.80 -30.13 18.74 -26.94 15.68 0.98 -0.98 6.37 -5.76 11.88 -10.65 11.39 -10.04 27.43 -28.17 37.60 -42.25 8.08 -11.27 19.84 -31.72 20.94 -36.49 1.10 -4.41 -0.12 -4.41 -16.53 0.24 -28.66 8.20 -57.43 11.76 -86.33 10.65 -27.06 -0.98 -43.11 -3.80 -74.95 -12.74 -4.16 -1.10 -7.96 -1.71 -8.45 -1.22 -2.45 2.45 12.98 30 27.06 48.13 8.82 11.39 31.47 34.78 41.02 42.49 3.06 2.45 5.14 4.53 4.78 4.53 -0.37 0 -7.96 -4.65 -17.02 -10.29z" data-index="28"></path>
  <path d="M301.01 417.96 c2.69 -5.02 23.51 -23.51 32.08 -28.66 20.57 -12 67.84 -29.27 127.48 -46.41 l33.19 -9.55 1.84 4.53 c0.98 2.45 3.43 7.96 5.39 12.25 1.96 4.29 3.55 7.96 3.55 8.20 0 0.12 -2.57 0.73 -5.76 1.10 -16.65 2.20 -60.86 9.92 -78.13 13.47 -67.60 14.33 -90.50 22.66 -113.64 41.51 -3.92 3.18 -6.61 4.78 -6 3.55z" data-index="29"></path>
 </g>
</svg>